<svg id="visual" viewBox="0 0 900 600" width="900" height="600" xmlns="http://www.w3.org/2000/svg" xmlns:xlink="http://www.w3.org/1999/xlink" version="1.1"><rect x="0" y="0" width="900" height="600" fill="#001220"></rect><path d="M0 417L21.5 419.8C43 422.7 86 428.3 128.8 430.3C171.7 432.3 214.3 430.7 257.2 420.3C300 410 343 391 385.8 389.8C428.7 388.7 471.3 405.3 514.2 410.7C557 416 600 410 642.8 413.7C685.7 417.3 728.3 430.7 771.2 423.2C814 415.7 857 387.3 878.5 373.2L900 359L900 601L878.5 601C857 601 814 601 771.2 601C728.3 601 685.7 601 642.8 601C600 601 557 601 514.2 601C471.3 601 428.7 601 385.8 601C343 601 300 601 257.2 601C214.3 601 171.7 601 128.8 601C86 601 43 601 21.5 601L0 601Z" fill="#fa7268"></path><path d="M0 427L21.5 423.7C43 420.3 86 413.7 128.8 421.3C171.7 429 214.3 451 257.2 458.5C300 466 343 459 385.8 452.5C428.7 446 471.3 440 514.2 433.7C557 427.3 600 420.7 642.8 422C685.7 423.3 728.3 432.7 771.2 432C814 431.3 857 420.7 878.5 415.3L900 410L900 601L878.5 601C857 601 814 601 771.2 601C728.3 601 685.7 601 642.8 601C600 601 557 601 514.2 601C471.3 601 428.7 601 385.8 601C343 601 300 601 257.2 601C214.3 601 171.7 601 128.8 601C86 601 43 601 21.5 601L0 601Z" fill="#ef5f67"></path><path d="M0 458L21.5 465.5C43 473 86 488 128.8 496.7C171.7 505.3 214.3 507.7 257.2 507.8C300 508 343 506 385.8 501.7C428.7 497.3 471.3 490.7 514.2 486.2C557 481.7 600 479.3 642.8 474.7C685.7 470 728.3 463 771.2 458.5C814 454 857 452 878.5 451L900 450L900 601L878.5 601C857 601 814 601 771.2 601C728.3 601 685.7 601 642.8 601C600 601 557 601 514.2 601C471.3 601 428.7 601 385.8 601C343 601 300 601 257.2 601C214.3 601 171.7 601 128.8 601C86 601 43 601 21.5 601L0 601Z" fill="#e34c67"></path><path d="M0 527L21.5 524.3C43 521.7 86 516.3 128.8 518.7C171.7 521 214.3 531 257.2 532C300 533 343 525 385.8 522.8C428.7 520.7 471.3 524.3 514.2 523.5C557 522.7 600 517.3 642.8 514.5C685.7 511.7 728.3 511.3 771.2 516.3C814 521.3 857 531.7 878.5 536.8L900 542L900 601L878.5 601C857 601 814 601 771.2 601C728.3 601 685.7 601 642.8 601C600 601 557 601 514.2 601C471.3 601 428.7 601 385.8 601C343 601 300 601 257.2 601C214.3 601 171.7 601 128.8 601C86 601 43 601 21.5 601L0 601Z" fill="#d53867"></path><path d="M0 562L21.5 556.2C43 550.3 86 538.7 128.8 540C171.7 541.3 214.3 555.7 257.2 555.7C300 555.7 343 541.3 385.8 535.3C428.7 529.3 471.3 531.7 514.2 534.8C557 538 600 542 642.8 545.3C685.7 548.7 728.3 551.3 771.2 555.8C814 560.3 857 566.7 878.5 569.8L900 573L900 601L878.5 601C857 601 814 601 771.2 601C728.3 601 685.7 601 642.8 601C600 601 557 601 514.2 601C471.3 601 428.7 601 385.8 601C343 601 300 601 257.2 601C214.3 601 171.7 601 128.8 601C86 601 43 601 21.5 601L0 601Z" fill="#c62368"></path></svg>